# xmcd
#
# Track frame offsets: 
#        150
#        12345
#        22629
#        35956
#        48683
#        59426
#        72296
#        83824
#        102711
#        117059
#        126714
#        144477
#        158617
#
# Disc length: 2260 seconds
#
# Revision: 0
# Processed by: cddbd v1.5.2PL0 Copyright (c) Steve Scherf et al.
# Submitted via: ExactAudioCopy v0.95b4
#
DISCID=b708d20d
DTITLE=The Saddle Tramps - Greatest Hits - Round 1: The Early Years 19
DTITLE=98-2002
DYEAR=1900
DGENRE=Country
TTITLE0=Mamma Was A Flagger
TTITLE1=After A Sixer
TTITLE2=(You Put The) Cunt In Country
TTITLE3=Consuela
TTITLE4=Waitin' On A Waitress
TTITLE5=Shakin' In My Boots
TTITLE6=Cindy Brady (Have My Baby)
TTITLE7=The Mullet Song
TTITLE8=El Boracho
TTITLE9=Home Sweet Homo
TTITLE10=Truck Drivin' Lover
TTITLE11=Piggy Sue
TTITLE12=My Dick's Too Big
EXTD=
EXTT0=
EXTT1=
EXTT2=
EXTT3=
EXTT4=
EXTT5=
EXTT6=
EXTT7=
EXTT8=
EXTT9=
EXTT10=
EXTT11=
EXTT12=
PLAYORDER=
